<?xml version="1.0" encoding="UTF-8"?>
<svg width="930px" height="567px" viewBox="0 0 930 567" version="1.1" xmlns="http://www.w3.org/2000/svg" xmlns:xlink="http://www.w3.org/1999/xlink">
    <!-- Generator: Sketch 50.2 (55047) - http://www.bohemiancoding.com/sketch -->
    <title>Slice 1</title>
    <desc>Created with Sketch.</desc>
    <defs></defs>
    <g id="Page-1" stroke="none" stroke-width="1" fill="none" fill-rule="evenodd">
        <g id="desktop" transform="translate(83.000000, 310.000000)" fill="#333E48">
            <path d="M28.4166667,40.3333333 L33,43.0833333 L33,44 L11,44 L11,43.0833333 L15.5833333,40.3333333 L16.8055556,36.6666667 L3.66666667,36.6666667 C1.64162258,36.6666667 2.47996375e-16,35.0250441 0,33 L0,3.66666667 C-2.47996375e-16,1.64162258 1.64162258,3.71994563e-16 3.66666667,0 L40.3333333,0 C42.3583774,-3.71994563e-16 44,1.64162258 44,3.66666667 L44,33 C44,35.0250441 42.3583774,36.6666667 40.3333333,36.6666667 L27.1944444,36.6666667 L28.4166667,40.3333333 Z M3.66666667,29.3333333 L40.3333333,29.3333333 L40.3333333,3.66666667 L3.66666667,3.66666667 L3.66666667,29.3333333 Z" id="Shape"></path>
        </g>
        <path d="M156.5,173.5 L278.5,173.5" id="Line" stroke="#979797" stroke-linecap="square" stroke-dasharray="3"></path>
        <path d="M156.5,330.5 L278.5,330.5" id="Line" stroke="#979797" stroke-linecap="square" stroke-dasharray="3"></path>
        <path d="M514.5,266.5 L690.5,266.5" id="Line" stroke="#979797" stroke-linecap="square" stroke-dasharray="3"></path>
        <path d="M279.5,266.5 L327.5,266.5" id="Line" stroke="#979797" stroke-linecap="square" stroke-dasharray="3"></path>
        <text id="App" font-family="HelveticaNeue, Helvetica Neue" font-size="24" font-weight="normal" fill="#333E48">
            <tspan x="211.984" y="79">App</tspan>
        </text>
        <g id="phoe" transform="translate(228.500000, 8.000000)" fill="#333E48" fill-rule="nonzero">
            <path d="M3.92857143,0 L23.5714286,0 C25.7411187,0 27.5,1.790861 27.5,4 L27.5,40 C27.5,42.209139 25.7411187,44 23.5714286,44 L3.92857143,44 C1.75888134,44 0,42.209139 0,40 L0,4 C0,1.790861 1.75888134,0 3.92857143,0 Z M23.5714286,34 L23.5714286,6 L3.92857143,6 L3.92857143,34 L23.5714286,34 Z M13.75,42 C15.3803571,42 16.6964286,40.66 16.6964286,39 C16.6964286,37.34 15.3803571,36 13.75,36 C12.1196429,36 10.8035714,37.34 10.8035714,39 C10.8035714,40.66 12.1196429,42 13.75,42 Z" id="Shape"></path>
        </g>
        <text id="Personalisation-(Opt" font-family="HelveticaNeue, Helvetica Neue" font-size="24" font-weight="normal" fill="#333E48">
            <tspan x="582" y="79">Personalisation</tspan>
            <tspan x="582" y="107">(Optimisation engine)</tspan>
        </text>
        <g id="people" transform="translate(582.000000, 8.000000)" fill="#333E48">
            <path d="M0,39.111111 L0,44 L44,44 L44,39.111111 C44,32.608889 29.3425,29.3333333 22,29.3333333 C14.6575,29.3333333 0,32.608889 0,39.111111 Z M22,22 C28.0775,22 33,17.0775 33,11 C33,4.9225 28.0775,0 22,0 C15.9225,0 11,4.9225 11,11 C11,17.0775 15.9225,22 22,22 Z" id="Shape"></path>
        </g>
        <text id="Search-(Search-engin" font-family="HelveticaNeue, Helvetica Neue" font-size="24" font-weight="normal" fill="#333E48">
            <tspan x="719" y="314">Search</tspan>
            <tspan x="719" y="342">(Search engine)</tspan>
        </text>
        <g id="search" transform="translate(720.000000, 243.000000)" fill="#333E48">
            <path d="M3.66666667,16.5 C3.66666667,9.41279167 9.41279167,3.66666667 16.5,3.66666667 C23.5872083,3.66666667 29.3333333,9.41279167 29.3333333,16.5 C29.3333333,23.5872083 23.5872083,29.3333333 16.5,29.3333333 C9.41279167,29.3333333 3.66666667,23.5872083 3.66666667,16.5 M41.416375,36.958625 L30.182625,25.724875 C31.9605,23.09175 33,19.916875 33,16.5 C33,7.387875 25.612125,0 16.5,0 C7.387875,0 0,7.387875 0,16.5 C0,25.612125 7.387875,33 16.5,33 C19.19775,33 21.736,32.34 23.984125,31.191875 L35.583625,42.791375 C36.389375,43.597125 37.444,44 38.5,44 C39.556,44 40.610625,43.597125 41.416375,42.791375 C43.027875,41.18125 43.027875,38.56875 41.416375,36.958625" id="Shape"></path>
        </g>
        <text id="Content-(CMS)" font-family="HelveticaNeue, Helvetica Neue" font-size="24" font-weight="normal" fill="#333E48">
            <tspan x="582" y="531">Content</tspan>
            <tspan x="582" y="559">(CMS)</tspan>
        </text>
        <g id="file" transform="translate(582.000000, 460.000000)" fill="#333E48">
            <path d="M3.66666667,0 L25.6666667,0 L36.6666667,11 L36.6666667,40.3333333 C36.6666667,42.3583774 35.0250441,44 33,44 L3.66666667,44 C1.64162258,44 0,42.3583774 0,40.3333333 L0,3.66666667 C0,1.64162258 1.64162258,3.71994563e-16 3.66666667,0 Z M3.66666667,3.66666667 L3.66666667,40.3333333 L33,40.3333333 L33,11 L25.6666667,11 L25.6666667,3.66666667 L3.66666667,3.66666667 Z M7.33333333,22 L29.3333333,22 L29.3333333,18.3333333 L7.33333333,18.3333333 L7.33333333,22 Z M7.33333333,29.3333333 L29.3333333,29.3333333 L29.3333333,25.6666667 L7.33333333,25.6666667 L7.33333333,29.3333333 Z M7.33333333,36.6666667 L29.3333333,36.6666667 L29.3333333,33 L7.33333333,33 L7.33333333,36.6666667 Z" id="Shape"></path>
        </g>
        <path d="M247,326 L247,326.97" id="Shape" stroke="#999999" stroke-width="0.97" stroke-dasharray="2.9"></path>
        <circle id="Oval" fill="#333E48" fill-rule="nonzero" cx="278.588281" cy="30.5882814" r="6.58828143"></circle>
        <circle id="Oval" fill="#333E48" fill-rule="nonzero" cx="558.588281" cy="480.588281" r="6.58828143"></circle>
        <circle id="Oval" fill="#333E48" fill-rule="nonzero" cx="558.588281" cy="29.5882814" r="6.58828143"></circle>
        <circle id="Oval" fill="#76777A" fill-rule="nonzero" cx="740.802255" cy="162.802255" r="1"></circle>
        <circle id="Oval" fill="#333E48" fill-rule="nonzero" cx="697" cy="266" r="6"></circle>
        <circle id="Oval" fill="#333E48" fill-rule="nonzero" cx="516" cy="266" r="6"></circle>
        <circle id="Oval" fill="#333E48" fill-rule="nonzero" cx="322" cy="266" r="6"></circle>
        <circle id="Oval" fill="#333E48" fill-rule="nonzero" cx="149.588281" cy="172.588281" r="6.58828143"></circle>
        <circle id="Oval" fill="#333E48" fill-rule="nonzero" cx="149.588281" cy="329.588281" r="6.58828143"></circle>
        <circle id="Oval" fill="#333E48" fill-rule="nonzero" cx="278.588281" cy="481.588281" r="6.58828143"></circle>
        <text id="Secure" font-family="HelveticaNeue, Helvetica Neue" font-size="24" font-weight="normal" fill="#333E48">
            <tspan x="51.88" y="215">Secure</tspan>
        </text>
        <g id="lock" transform="translate(90.000000, 144.000000)" fill="#333E48">
            <path d="M7.33333333,14.6666667 L7.33333333,11 C7.33333333,4.92486775 12.2582011,0 18.3333333,0 C24.4084656,0 29.3333333,4.92486775 29.3333333,11 L29.3333333,14.6666667 L33,14.6666667 C35.0250441,14.6666667 36.6666667,16.3082893 36.6666667,18.3333333 L36.6666667,40.3333333 C36.6666667,42.3583774 35.0250441,44 33,44 L3.66666667,44 C1.64162258,44 0,42.3583774 0,40.3333333 L0,18.3333333 C0,16.3082893 1.64162258,14.6666667 3.66666667,14.6666667 L7.33333333,14.6666667 Z M25.6666667,14.6666667 L25.6666667,11 C25.6666667,6.94991183 22.3834215,3.66666667 18.3333333,3.66666667 C14.2832452,3.66666667 11,6.94991183 11,11 L11,14.6666667 L25.6666667,14.6666667 Z M18.3333333,33.9166667 C20.8646385,33.9166667 22.9166667,31.8646385 22.9166667,29.3333333 C22.9166667,26.8020282 20.8646385,24.75 18.3333333,24.75 C15.8020282,24.75 13.75,26.8020282 13.75,29.3333333 C13.75,31.8646385 15.8020282,33.9166667 18.3333333,33.9166667 Z" id="Shape"></path>
        </g>
        <text id="Website" font-family="HelveticaNeue, Helvetica Neue" font-size="24" font-weight="normal" fill="#333E48">
            <tspan x="41.248" y="381">Website</tspan>
        </text>
        <text id="Offsite" font-family="HelveticaNeue, Helvetica Neue" font-size="24" font-weight="normal" fill="#333E48">
            <tspan x="186.136" y="531">Offsite</tspan>
        </text>
        <text id="API-Gateway" font-family="HelveticaNeue, Helvetica Neue" font-size="24" font-weight="normal" fill="#66728B">
            <tspan x="395.84" y="239">API</tspan>
            <tspan x="367.184" y="267">Gateway</tspan>
        </text>
        <g id="cloud" transform="translate(329.000000, 176.000000)" fill="#95A6CB" fill-rule="nonzero" stroke="#FFFFFF" stroke-width="3">
            <path d="M144.492889,42.7776258 C143.0503,42.7788064 141.610067,42.8661781 140.178077,43.0385597 C136.290743,30.3472522 124.613431,21.6738552 111.372236,21.6466991 C108.076068,21.6431569 104.803453,22.1921808 101.68864,23.2677954 C93.977563,6.55031242 75.7032057,-2.53514757 57.7644713,1.42963141 C39.8233817,5.39559131 27.0544131,21.3408986 27.067367,39.7585847 C27.0685445,42.9417427 27.4642259,46.111913 28.2402794,49.1958924 C11.1482561,51.8123161 -1.06369652,67.1708172 0.206958709,84.4597574 C1.47525884,101.749878 15.7986902,115.151965 33.0885544,115.22871 L144.492889,115.22871 C164.447714,115.22871 180.623547,99.0094812 180.623547,79.0025776 C180.623547,58.9956741 164.447714,42.7776258 144.492889,42.7776258 Z M144.492889,109.190628 L33.0885544,109.190628 C18.2446135,109.255566 6.11509464,97.325808 5.89370117,82.4443083 C5.67348585,67.5628085 17.4414746,55.2776606 32.2818823,54.8986568 C33.2451783,54.871501 34.136639,54.3838734 34.680701,53.5869031 C35.2271182,52.7887522 35.3578345,51.7792566 35.033988,50.8689394 C29.0575501,33.7216828 37.9474277,14.9438844 54.977037,8.74404682 C72.0054691,2.54420898 90.8415523,11.2305937 97.2301582,28.2279017 C97.5222088,29.016607 98.1275072,29.6459185 98.9023835,29.967068 C99.6784369,30.2882175 100.551056,30.270507 101.3118,29.9186592 C104.464298,28.448692 107.897069,27.6871428 111.372236,27.6836007 C122.828154,27.704853 132.693104,35.7949863 134.981226,47.0493859 C135.308605,48.6858315 136.898397,49.7437356 138.528227,49.4131406 C140.491325,49.0187881 142.488574,48.8180695 144.492889,48.815708 C161.122106,48.815708 174.602359,62.3323225 174.602359,79.0025776 C174.602359,95.675194 161.122106,109.190628 144.492889,109.190628 Z" id="Shape"></path>
        </g>
        <path d="M278.5,37.5 L278.5,473.5" id="Line-2" stroke="#979797" stroke-linecap="square" stroke-dasharray="3"></path>
        <path d="M558.5,36.5 L558.5,473.5" id="Line-2" stroke="#979797" stroke-linecap="square" stroke-dasharray="3"></path>
        <g id="global" transform="translate(212.000000, 460.000000)" fill="#333E48">
            <path d="M36.05536,7.94596 C40.04308,11.93368 42.24088,17.24008 42.24088,22.87912 C42.24088,28.52212 40.04308,33.82456 36.05536,37.81624 C32.06764,41.80396 26.76256,43.99912 21.12088,43.99912 C15.47788,43.99912 10.17676,41.80396 6.18508,37.81624 C2.19736,33.82456 0.00088,28.52212 0.00088,22.87912 C0.00088,17.24008 2.19736,11.93368 6.18508,7.94596 C10.17676,3.95824 15.47788,1.75912 21.12088,1.75912 C26.76256,1.75912 32.06764,3.95824 36.05536,7.94596 M34.18756,35.94976 C36.7906,33.34672 38.51716,30.10744 39.23128,26.58172 C38.67424,27.40012 38.14492,27.70504 37.81492,25.87156 C37.47304,22.88572 34.73272,24.79444 33.00748,23.73448 C31.19248,24.9568 27.115,21.35452 27.808,25.41616 C28.87852,27.24832 33.583,22.96624 31.23736,26.84176 C29.74048,29.54776 25.76464,35.54188 26.28472,38.65048 C26.34808,43.17676 21.6568,39.59428 20.0398,38.09212 C18.95344,35.08516 19.6702,29.82628 16.82824,28.35448 C13.74208,28.21984 11.09416,27.93868 9.89824,24.48952 C9.17884,22.02244 10.66384,18.34888 13.30912,17.77996 C17.17804,15.34852 18.56272,20.62852 22.19272,20.72884 C23.32264,19.54744 26.39296,19.17388 26.64772,17.85124 C24.26512,17.43016 29.6692,15.84616 26.41804,14.94724 C24.6268,15.15712 23.4718,16.80712 24.42484,18.20368 C20.9506,19.01548 20.83972,13.17448 17.49748,15.0172 C17.41432,17.9278 12.04588,15.961 15.63892,15.37096 C16.87708,14.8324 13.62592,13.26556 15.38152,13.55068 C16.24216,13.50448 19.14748,12.48412 18.36472,11.803 C19.97776,10.79716 21.34,14.2054 22.92268,11.7238 C24.0658,9.81508 22.4422,9.46264 21.01264,10.43152 C20.20216,9.526 22.43824,7.57372 24.40768,6.72892 C25.06372,6.44644 25.68808,6.29332 26.16988,6.33688 C27.16384,7.48396 28.996,7.68328 29.095,6.20092 C26.63452,5.02216 23.92588,4.39912 21.12088,4.39912 C17.09356,4.39912 13.2616,5.68084 10.09492,8.04628 C10.94764,8.43832 11.42944,8.92276 10.60972,9.54448 C9.96952,11.44396 7.38364,13.9942 5.11324,13.63384 C3.93448,15.66796 3.157,17.908 2.82304,20.25496 C4.72912,20.8846 5.16736,22.12936 4.75684,22.54648 C3.7906,23.39128 3.19264,24.58852 2.88508,25.90192 C3.50548,29.69032 5.28484,33.1804 8.05288,35.94976 C11.5456,39.43852 16.18276,41.35912 21.12088,41.35912 C26.05636,41.35912 30.69484,39.43852 34.18756,35.94976" id="Shape"></path>
        </g>
    </g>
</svg>