<?xml version="1.0" encoding="UTF-8"?>
<svg width="891px" height="567px" viewBox="0 0 891 567" version="1.1" xmlns="http://www.w3.org/2000/svg" xmlns:xlink="http://www.w3.org/1999/xlink">
    <!-- Generator: Sketch 51.3 (57544) - http://www.bohemiancoding.com/sketch -->
    <title>Slice 1</title>
    <desc>Created with Sketch.</desc>
    <defs></defs>
    <g id="Page-1" stroke="none" stroke-width="1" fill="none" fill-rule="evenodd">
        <g id="if_Non-Service_Specific_copy_Generic_Database_259287" transform="translate(121.000000, 370.000000)" fill-rule="nonzero">
            <g id="Group">
                <path d="M74.487581,0.572603448 C89.8044015,0.572603448 102.892396,1.79196552 113.653183,3.75177586 C136.711528,7.84462069 149.009086,14.9230345 149.009086,19.2672241 C149.009086,23.6046207 136.711528,30.7373793 113.653183,34.8438103 C102.892396,36.7492759 89.8044015,38.0161897 74.487581,38.0161897 C26.3150779,38.0161897 0.0203545788,25.6187759 0.0203545788,19.2672241 C0.0203545788,12.9258621 26.3150779,0.572603448 74.487581,0.572603448 Z" id="Shape" fill="#E7E1EF"></path>
                <g id="Clipped" transform="translate(0.000000, 18.992963)">
                    <g id="Group">
                        <path d="M149.009086,0.274261436 L149.009086,9.74724419 C149.009086,9.87291661 148.995516,10.0121752 148.975162,10.1378476 L148.975162,0.671657987 C148.995516,0.53919247 149.009086,0.413520056 149.009086,0.274261436" id="Shape" fill="#484A4B"></path>
                        <path d="M148.975162,0.671657987 L148.975162,10.1378476 C148.94463,10.3110718 148.900528,10.491089 148.836072,10.6745028 L148.836072,1.19472695 C148.900528,1.02489937 148.94463,0.844882125 148.975162,0.671657987" id="Shape" fill="#484A4B"></path>
                        <path d="M148.836072,1.19472695 L148.836072,10.6745028 C148.744477,10.9326407 148.618957,11.1907787 148.452728,11.4625028 L148.452728,1.98952006 C148.618957,1.72119247 148.744477,1.45286488 148.836072,1.19472695" id="Shape" fill="#484A4B"></path>
                        <path d="M148.452728,1.99291661 L148.452728,11.4658994 C145.823595,15.7965028 133.875457,21.7234856 113.653183,25.3102442 C102.892396,27.2157097 89.8044015,28.4962097 74.487581,28.4962097 C26.3150779,28.4962097 0.0203545788,16.0987959 0.0203545788,9.74724419 L0.0203545788,0.274261436 C0.0203545788,6.62241661 26.3150779,19.023227 74.487581,19.023227 C89.8044015,19.023227 102.892396,17.7563132 113.653183,15.8508476 C133.875457,12.2538994 145.820202,6.32352006 148.452728,1.99291661" id="Shape" fill="#939799"></path>
                    </g>
                </g>
                <path d="M148.897136,161.783138 C149.05658,161.341586 149.137999,160.920414 149.137999,160.519621 L149.137999,175.827879 C149.137999,176.007897 149.124429,176.181121 149.093897,176.350948 C149.053188,176.575121 148.995516,176.809483 148.914098,177.054034 C148.907313,177.064224 148.900528,177.07781 148.893744,177.091397 C148.883566,177.121966 148.859819,177.159328 148.84625,177.1865 C148.737692,177.468414 148.612172,177.753724 148.432373,178.049224 C148.388272,178.120552 148.317031,178.198672 148.266144,178.273397 C148.137232,178.470397 147.977788,178.670793 147.818343,178.874586 C147.61819,179.129328 147.407859,179.384069 147.163604,179.652397 C146.960059,179.862983 146.739551,180.080362 146.508865,180.294345 C146.223901,180.555879 145.918583,180.817414 145.589517,181.078948 C145.31473,181.299724 145.029766,181.523897 144.717663,181.748069 C144.35128,182.016397 143.940796,182.281328 143.523527,182.546259 C143.177499,182.770431 142.834864,182.994603 142.454912,183.218776 C141.979972,183.497293 141.454145,183.772414 140.928318,184.047534 C140.524619,184.261517 140.141275,184.4755 139.703651,184.686086 C139.065874,184.998569 138.353464,185.304259 137.644446,185.606552 C137.240747,185.783172 136.874365,185.959793 136.450311,186.129621 C135.300277,186.594948 134.072218,187.053483 132.752563,187.501828 C132.321724,187.647879 131.829822,187.787138 131.378629,187.93319 C130.432141,188.235483 129.478868,188.537776 128.454354,188.829879 C127.840324,189.0065 127.175408,189.169534 126.534239,189.335966 C125.580966,189.583914 124.627693,189.831862 123.609964,190.073017 C122.883984,190.242845 122.120688,190.402483 121.360783,190.562121 C120.33627,190.7795 119.301579,190.996879 118.212609,191.200672 C117.391641,191.356914 116.540141,191.502966 115.681856,191.649017 C114.562354,191.842621 113.408928,192.022638 112.221578,192.199259 C111.325976,192.331724 110.413412,192.457397 109.477102,192.583069 C108.225295,192.746103 106.932779,192.895552 105.613124,193.041603 C104.659852,193.146897 103.706579,193.25219 102.712597,193.347293 C101.294561,193.483155 99.8154618,193.595241 98.3295775,193.707328 C97.3457729,193.778655 96.3857153,193.860172 95.3679863,193.92131 C93.6751639,194.023207 91.9009231,194.101328 90.116505,194.169259 C89.2175111,194.206621 88.3592264,194.254172 87.4364855,194.284741 C84.6886173,194.362862 81.8559385,194.41381 78.9045245,194.41381 C51.7583013,194.41381 31.2510632,190.949328 17.9357763,186.700241 C8.02309646,183.178017 0.922740904,179.329724 0.128912332,176.344155 L0.128912332,161.04269 C0.868462027,163.810879 7.10374799,167.339897 15.94442,170.651534 L15.7646212,169.720879 C29.0765158,173.966569 51.7549089,179.108948 78.9011321,179.108948 C81.8559385,179.108948 84.6920098,179.058 87.4432703,178.979879 C88.3388718,178.94931 89.1801944,178.905155 90.0554413,178.867793 C91.8636063,178.796466 93.6649866,178.718345 95.3849485,178.616448 C96.3687531,178.551914 97.3016713,178.47719 98.2583365,178.405862 C99.7815375,178.293776 101.297954,178.178293 102.749914,178.039034 C103.696401,177.950724 104.61575,177.848828 105.531706,177.746931 C106.902248,177.597483 108.252435,177.437845 109.555128,177.268017 C110.426982,177.152534 111.281874,177.033655 112.123197,176.911379 C113.388573,176.724569 114.616633,176.530966 115.814161,176.323776 L132.660967,172.234328 C134.048471,171.762207 135.340987,171.283293 136.545299,170.790793 L139.808817,169.333672 C140.083603,169.19781 140.327858,169.061948 140.592468,168.926086 C141.284524,168.572845 141.952832,168.21281 142.560077,167.856172 C142.834864,167.693138 143.079119,167.530103 143.336944,167.367069 C143.866163,167.034207 144.368242,166.704741 144.822828,166.371879 C145.053513,166.202052 145.274021,166.032224 145.484352,165.862397 C145.888051,165.543121 146.261218,165.223845 146.590284,164.914759 C146.773475,164.741534 146.946489,164.56831 147.109326,164.405276 C147.404467,164.09619 147.655507,163.793897 147.886192,163.491603 C148.011712,163.328569 148.140624,163.162138 148.245789,163.0025 L148.897136,161.783138 Z" id="Shape" fill="#939799"></path>
                <path d="M112.750797,50.0671552 C110.698377,50.4577586 108.649349,50.7498621 106.596929,51.0555517 C105.538491,51.1880172 104.483445,51.3952069 103.384298,51.4869138 C101.48793,51.7314655 99.5440674,51.925069 97.5934203,52.1186724 C96.328044,52.2239655 95.0626676,52.3632241 93.8006838,52.417569 C91.3276024,52.6111724 88.8002422,52.7572241 86.2660972,52.848931 L85.0041133,52.8964828 C82.0628767,53.0561207 79.0605763,53.1036724 75.9463258,53.1478276 C75.3187263,53.1478276 74.6877343,53.1478276 74.0058559,53.1478276 C44.4102984,53.1478276 14.6111951,48.0665862 0.135697192,38.3592414 L0.135697192,166.891552 C0.922740904,169.870328 7.97560244,173.725414 17.8272186,177.240845 C31.1458979,181.486534 51.6802755,184.954414 78.8502457,184.954414 C128.498456,184.954414 149.141391,172.849103 149.141391,166.3515 L149.249949,37.1840345 C141.505032,42.604931 128.973396,47.234431 112.750797,50.0671552 Z" id="Shape" fill="#E7E1EF"></path>
            </g>
        </g>
        <path d="M282.5,482.208333 L619.5,482.208333" id="Line" stroke="#F5A623" stroke-linecap="square" stroke-dasharray="3"></path>
        <circle id="Oval" fill="#333E48" fill-rule="nonzero" cx="279.588281" cy="481.588281" r="6.58828143"></circle>
        <rect id="Rectangle-2" stroke="#979797" fill-rule="nonzero" x="371.5" y="233.5" width="149" height="68" rx="6"></rect>
        <g id="if_Non-Service_Specific_copy_Generic_Database_259287" transform="translate(626.000000, 370.000000)" fill-rule="nonzero">
            <g id="Group">
                <path d="M74.487581,0.572603448 C89.8044015,0.572603448 102.892396,1.79196552 113.653183,3.75177586 C136.711528,7.84462069 149.009086,14.9230345 149.009086,19.2672241 C149.009086,23.6046207 136.711528,30.7373793 113.653183,34.8438103 C102.892396,36.7492759 89.8044015,38.0161897 74.487581,38.0161897 C26.3150779,38.0161897 0.0203545788,25.6187759 0.0203545788,19.2672241 C0.0203545788,12.9258621 26.3150779,0.572603448 74.487581,0.572603448 Z" id="Shape" fill="#E1E6EF"></path>
                <g id="Clipped" transform="translate(0.000000, 18.992963)">
                    <g id="Group">
                        <path d="M149.009086,0.274261436 L149.009086,9.74724419 C149.009086,9.87291661 148.995516,10.0121752 148.975162,10.1378476 L148.975162,0.671657987 C148.995516,0.53919247 149.009086,0.413520056 149.009086,0.274261436" id="Shape" fill="#484A4B"></path>
                        <path d="M148.975162,0.671657987 L148.975162,10.1378476 C148.94463,10.3110718 148.900528,10.491089 148.836072,10.6745028 L148.836072,1.19472695 C148.900528,1.02489937 148.94463,0.844882125 148.975162,0.671657987" id="Shape" fill="#484A4B"></path>
                        <path d="M148.836072,1.19472695 L148.836072,10.6745028 C148.744477,10.9326407 148.618957,11.1907787 148.452728,11.4625028 L148.452728,1.98952006 C148.618957,1.72119247 148.744477,1.45286488 148.836072,1.19472695" id="Shape" fill="#484A4B"></path>
                        <path d="M148.452728,1.99291661 L148.452728,11.4658994 C145.823595,15.7965028 133.875457,21.7234856 113.653183,25.3102442 C102.892396,27.2157097 89.8044015,28.4962097 74.487581,28.4962097 C26.3150779,28.4962097 0.0203545788,16.0987959 0.0203545788,9.74724419 L0.0203545788,0.274261436 C0.0203545788,6.62241661 26.3150779,19.023227 74.487581,19.023227 C89.8044015,19.023227 102.892396,17.7563132 113.653183,15.8508476 C133.875457,12.2538994 145.820202,6.32352006 148.452728,1.99291661" id="Shape" fill="#939799"></path>
                    </g>
                </g>
                <path d="M148.897136,161.783138 C149.05658,161.341586 149.137999,160.920414 149.137999,160.519621 L149.137999,175.827879 C149.137999,176.007897 149.124429,176.181121 149.093897,176.350948 C149.053188,176.575121 148.995516,176.809483 148.914098,177.054034 C148.907313,177.064224 148.900528,177.07781 148.893744,177.091397 C148.883566,177.121966 148.859819,177.159328 148.84625,177.1865 C148.737692,177.468414 148.612172,177.753724 148.432373,178.049224 C148.388272,178.120552 148.317031,178.198672 148.266144,178.273397 C148.137232,178.470397 147.977788,178.670793 147.818343,178.874586 C147.61819,179.129328 147.407859,179.384069 147.163604,179.652397 C146.960059,179.862983 146.739551,180.080362 146.508865,180.294345 C146.223901,180.555879 145.918583,180.817414 145.589517,181.078948 C145.31473,181.299724 145.029766,181.523897 144.717663,181.748069 C144.35128,182.016397 143.940796,182.281328 143.523527,182.546259 C143.177499,182.770431 142.834864,182.994603 142.454912,183.218776 C141.979972,183.497293 141.454145,183.772414 140.928318,184.047534 C140.524619,184.261517 140.141275,184.4755 139.703651,184.686086 C139.065874,184.998569 138.353464,185.304259 137.644446,185.606552 C137.240747,185.783172 136.874365,185.959793 136.450311,186.129621 C135.300277,186.594948 134.072218,187.053483 132.752563,187.501828 C132.321724,187.647879 131.829822,187.787138 131.378629,187.93319 C130.432141,188.235483 129.478868,188.537776 128.454354,188.829879 C127.840324,189.0065 127.175408,189.169534 126.534239,189.335966 C125.580966,189.583914 124.627693,189.831862 123.609964,190.073017 C122.883984,190.242845 122.120688,190.402483 121.360783,190.562121 C120.33627,190.7795 119.301579,190.996879 118.212609,191.200672 C117.391641,191.356914 116.540141,191.502966 115.681856,191.649017 C114.562354,191.842621 113.408928,192.022638 112.221578,192.199259 C111.325976,192.331724 110.413412,192.457397 109.477102,192.583069 C108.225295,192.746103 106.932779,192.895552 105.613124,193.041603 C104.659852,193.146897 103.706579,193.25219 102.712597,193.347293 C101.294561,193.483155 99.8154618,193.595241 98.3295775,193.707328 C97.3457729,193.778655 96.3857153,193.860172 95.3679863,193.92131 C93.6751639,194.023207 91.9009231,194.101328 90.116505,194.169259 C89.2175111,194.206621 88.3592264,194.254172 87.4364855,194.284741 C84.6886173,194.362862 81.8559385,194.41381 78.9045245,194.41381 C51.7583013,194.41381 31.2510632,190.949328 17.9357763,186.700241 C8.02309646,183.178017 0.922740904,179.329724 0.128912332,176.344155 L0.128912332,161.04269 C0.868462027,163.810879 7.10374799,167.339897 15.94442,170.651534 L15.7646212,169.720879 C29.0765158,173.966569 51.7549089,179.108948 78.9011321,179.108948 C81.8559385,179.108948 84.6920098,179.058 87.4432703,178.979879 C88.3388718,178.94931 89.1801944,178.905155 90.0554413,178.867793 C91.8636063,178.796466 93.6649866,178.718345 95.3849485,178.616448 C96.3687531,178.551914 97.3016713,178.47719 98.2583365,178.405862 C99.7815375,178.293776 101.297954,178.178293 102.749914,178.039034 C103.696401,177.950724 104.61575,177.848828 105.531706,177.746931 C106.902248,177.597483 108.252435,177.437845 109.555128,177.268017 C110.426982,177.152534 111.281874,177.033655 112.123197,176.911379 C113.388573,176.724569 114.616633,176.530966 115.814161,176.323776 L132.660967,172.234328 C134.048471,171.762207 135.340987,171.283293 136.545299,170.790793 L139.808817,169.333672 C140.083603,169.19781 140.327858,169.061948 140.592468,168.926086 C141.284524,168.572845 141.952832,168.21281 142.560077,167.856172 C142.834864,167.693138 143.079119,167.530103 143.336944,167.367069 C143.866163,167.034207 144.368242,166.704741 144.822828,166.371879 C145.053513,166.202052 145.274021,166.032224 145.484352,165.862397 C145.888051,165.543121 146.261218,165.223845 146.590284,164.914759 C146.773475,164.741534 146.946489,164.56831 147.109326,164.405276 C147.404467,164.09619 147.655507,163.793897 147.886192,163.491603 C148.011712,163.328569 148.140624,163.162138 148.245789,163.0025 L148.897136,161.783138 Z" id="Shape" fill="#939799"></path>
                <path d="M112.750797,50.0671552 C110.698377,50.4577586 108.649349,50.7498621 106.596929,51.0555517 C105.538491,51.1880172 104.483445,51.3952069 103.384298,51.4869138 C101.48793,51.7314655 99.5440674,51.925069 97.5934203,52.1186724 C96.328044,52.2239655 95.0626676,52.3632241 93.8006838,52.417569 C91.3276024,52.6111724 88.8002422,52.7572241 86.2660972,52.848931 L85.0041133,52.8964828 C82.0628767,53.0561207 79.0605763,53.1036724 75.9463258,53.1478276 C75.3187263,53.1478276 74.6877343,53.1478276 74.0058559,53.1478276 C44.4102984,53.1478276 14.6111951,48.0665862 0.135697192,38.3592414 L0.135697192,166.891552 C0.922740904,169.870328 7.97560244,173.725414 17.8272186,177.240845 C31.1458979,181.486534 51.6802755,184.954414 78.8502457,184.954414 C128.498456,184.954414 149.141391,172.849103 149.141391,166.3515 L149.249949,37.1840345 C141.505032,42.604931 128.973396,47.234431 112.750797,50.0671552 Z" id="Shape" fill="#E1E6EF"></path>
            </g>
        </g>
        <circle id="Oval" fill="#333E48" fill-rule="nonzero" cx="616.588281" cy="481.588281" r="6.58828143"></circle>
        <circle id="Oval" fill="#333E48" fill-rule="nonzero" cx="446.588281" cy="12.5882814" r="6.58828143"></circle>
        <path d="M446.208333,19.5 L446.208333,218.5" id="Line-2" stroke="#50E3C2" stroke-linecap="square" stroke-dasharray="3"></path>
        <path d="M202.201389,143.5 L202.201389,356.5" id="Line-2" stroke="#F5A623" stroke-linecap="square" stroke-dasharray="3"></path>
        <path d="M308.788513,51.5 L202.5,356.5" id="Line-2" stroke="#F5A623" stroke-linecap="square" stroke-dasharray="3"></path>
        <circle id="Oval" fill="#333E48" fill-rule="nonzero" cx="202.588281" cy="137.588281" r="6.58828143"></circle>
        <circle id="Oval" fill="#333E48" fill-rule="nonzero" cx="202.588281" cy="361.588281" r="6.58828143"></circle>
        <circle id="Oval" fill="#333E48" fill-rule="nonzero" cx="446.588281" cy="221.588281" r="6.58828143"></circle>
        <circle id="Oval" fill="#333E48" fill-rule="nonzero" cx="308.588281" cy="45.5882814" r="6.58828143"></circle>
    </g>
</svg>